/* XPM */
static char *_n9h7_qlcvq[] = {
/* columns rows colors chars-per-pixel */
"32 32 74 1 ",
"  c #430100",
". c #4A0100",
"X c #540300",
"o c #5C0200",
"O c #540800",
"+ c #5D0900",
"@ c #640000",
"# c #6C0000",
"$ c #620B00",
"% c #6F0E00",
"& c #730100",
"* c #7C0000",
"= c #750C00",
"- c #7C0A00",
"; c #751000",
": c #7A1000",
"> c #830000",
", c #8B0100",
"< c #840D00",
"1 c #8B0B00",
"2 c #930000",
"3 c #9B0000",
"4 c #930D00",
"5 c #9A0D00",
"6 c #811100",
"7 c #891100",
"8 c #941200",
"9 c #9E1400",
"0 c #A00000",
"q c #A50D00",
"w c #BB0C00",
"e c #A41300",
"r c #AB1300",
"t c #A91900",
"y c #B51400",
"u c #BA1300",
"i c #B41A00",
"p c #BD1D00",
"a c #C10A00",
"s c #C90A00",
"d c #C51100",
"f c #C91400",
"g c #C41B00",
"h c #CA1D00",
"j c #D21A00",
"k c #E01800",
"l c #C32000",
"z c #CC2100",
"x c #D32300",
"c c #DC2600",
"v c #E12600",
"b c #E42A00",
"n c #EC2D00",
"m c #F02D00",
"M c #EF3000",
"N c #F33300",
"B c #FA3500",
"V c #FB3B00",
"C c #EB3B29",
"Z c #FE4300",
"A c #FF5A00",
"S c #FF6300",
"D c #FF6F00",
"F c #FF7600",
"G c #F24533",
"H c #EF554C",
"J c #F66257",
"K c #C37A79",
"L c #FF8700",
"P c #D7807D",
"I c #C59B9B",
"U c #D89493",
"Y c #E09896",
"T c None",
/* pixels */
"TTTTTTTTTTTTTTTTTTTTTTTTTTTTTTTT",
"TTTTTTTTTTVm1*&**&8mHTTTTTTTTTTT",
"TTTTTTTTV>B>>>nbc*&ge9MTTTTTTTTT",
"TTTTTTThV>h>,>bbc***cxipTTTTTTTT",
"TTTTTZqZbbb,.1b>n*@**9&M#UTTTTTT",
"TTTTZ3;32uy,,v>>4f>****&m-ITTTTT",
"TTTT3=3b222N,21,>>>****#<n=TTTTT",
"TTT7Z3n39e48e<u5wawd*-x&&$MzTTTT",
"TTZZi33+ZZZVZVVVVVBB8m*&t&&@nTTT",
"TT22822$MNBNVVVVVVVN8**&*&&n:TTT",
"TVN-n2b,##@##@&#@@#o>,**&&&@*KTT",
"T8ovf>,2,>,>#,>,>>>>>@NN&*&&xnTT",
"T5>*>*>***>>l*>*>***>XNN&%bbN6TT",
"T,nnmt****&*****&>N&&+NN8&&##&TT",
"GN8e,>,O*>*&&&&&*&n&&+NNnBs&t=TT",
"Z03232,ONNNNmnmnnnnV&=bb#*#sg#TT",
"JV45322+VBNNNMnnbnb##Ovv##b>@@TT",
"T2BBn2321,>>>*,,&&&#@ bc#>@@@oTT",
"T5,24222,2,,>>*-&##<@ bc@%qy81TT",
"T7>mb>,VZAS9>bVZVVNO& bc@ooomxTT",
"TnN*<>>*>,>,>>>***&&&=-.@@ogXxTT",
"TT-#&*,$*&******&*&*t#a#@@fb<TTT",
"TTvb#jn1NNNNNNNNNNNNe1##c@fpcTTT",
"TTT<p@=#bnnnNMNNNNMMX&##&#bBTTTT",
"TTTc@@@####&#&&&&&#ja&&V#V-TTTTT",
"TTTTco@@v###&#&#y#&dbg##b#bTTTTT",
"TTTTTc@z@#iS###&=V&=ZVZb%bTTTTTT",
"TTTTTTc=b##F#S#@#n#z##nVTTTTTTTT",
"TTTTTTTTn&M&#D&&&B#+x#nTTTTTTTTT",
"TTTTTTTTTTML<6M&c@4VnTTTTTTTTTTT",
"TTTTTTTTTTTTTTYCKTTTTTTTTTTTTTTT",
"TTTTTTTTTTTTTTTTTTTTTTTTTTTTTTTT"
};
