/* XPM */
static char *_tfre_fs0pb[] = {
/* columns rows colors chars-per-pixel */
"16 16 134 2 ",
"   c #420100",
".  c #430100",
"X  c #510500",
"o  c #5D0000",
"O  c #550800",
"+  c #5C0800",
"@  c #5F0800",
"#  c #600000",
"$  c #610000",
"%  c #640000",
"&  c #650000",
"*  c #660000",
"=  c #680000",
"-  c #690000",
";  c #6A0000",
":  c #6C0000",
">  c #6D0000",
",  c #6E0000",
"<  c #6F0000",
"1  c #610900",
"2  c #630C00",
"3  c #700000",
"4  c #710000",
"5  c #720000",
"6  c #730000",
"7  c #720100",
"8  c #730100",
"9  c #750000",
"0  c #760000",
"q  c #770000",
"w  c #710600",
"e  c #720700",
"r  c #790000",
"t  c #780100",
"y  c #7B0000",
"u  c #780200",
"i  c #7C0000",
"p  c #7D0000",
"a  c #7E0000",
"s  c #7F0000",
"d  c #7A0600",
"f  c #740B00",
"g  c #730D00",
"h  c #7F0A00",
"j  c #800000",
"k  c #810000",
"l  c #830000",
"z  c #830100",
"x  c #840000",
"c  c #850100",
"v  c #860000",
"b  c #870000",
"n  c #870100",
"m  c #860200",
"M  c #880000",
"N  c #890000",
"B  c #8E0000",
"V  c #890400",
"C  c #8D0700",
"Z  c #810F00",
"A  c #840E00",
"S  c #870F00",
"D  c #900000",
"F  c #920000",
"G  c #930000",
"H  c #940000",
"J  c #950000",
"K  c #960000",
"L  c #970000",
"P  c #990000",
"I  c #9B0000",
"U  c #9F0000",
"Y  c #9D0D00",
"T  c #891100",
"R  c #951200",
"E  c #951400",
"W  c #9D1200",
"Q  c #A00000",
"!  c #A61300",
"~  c #A91600",
"^  c #BA1300",
"/  c #C00C00",
"(  c #CA0900",
")  c #C61100",
"_  c #C51200",
"`  c #C91500",
"'  c #C31800",
"]  c #C01D00",
"[  c #C71E00",
"{  c #CA1D00",
"}  c #CC2000",
"|  c #D72300",
" . c #D22400",
".. c #DF2700",
"X. c #E12500",
"o. c #E02600",
"O. c #E22800",
"+. c #E52800",
"@. c #E62B00",
"#. c #E92B00",
"$. c #E82C00",
"%. c #EB2D00",
"&. c #ED2C00",
"*. c #EC2D00",
"=. c #EC2E00",
"-. c #ED2E00",
";. c #ED2F00",
":. c #EE2E00",
">. c #EF2F00",
",. c #F12F00",
"<. c #EF3000",
"1. c #F03100",
"2. c #F13100",
"3. c #F23100",
"4. c #F13200",
"5. c #F33200",
"6. c #F23300",
"7. c #F43400",
"8. c #F73700",
"9. c #FD3200",
"0. c #FA3400",
"q. c #FA3A00",
"w. c #FB3A00",
"e. c #FA3B00",
"r. c #FB3C00",
"t. c #FC3C00",
"y. c #FC3E00",
"u. c #FF4000",
"i. c #FE4100",
"p. c #FF5A00",
"a. c #FF6400",
"s. c #FF7600",
"d. c #FF8700",
"f. c None",
/* pixels */
"f.f.f.f.f.,.s y q >.f.f.f.f.f.f.",
"f.f.f.[ M z b +.s r  .] f.f.f.f.",
"f.f.I P ^ N X.v ` s y 9 h f.f.f.",
"f.T U I ! R A Y / ) d u @ { f.f.",
"f.G H 1 1.8.r.y.e.7.p e 9 ;.f.f.",
"E o.k D x x B N x l & 6.0 4 $.f.",
"M &.~ i r a p q k 9 + 6.6 3 w f.",
"Q L F O 5.3.-.*.%.u.g @.t ( ; f.",
"H 0.K J C c u V 8 ;   ..n $ o f.",
"T *.m t.p.W O.i.w.X . ..# o | f.",
"f.5 0 2 7 a y r 9 j , = % #.f.f.",
"f.S - = =.<.4.2.1.<.4 > - 9.f.f.",
"f.f.$ * ; : < 3 3 _ ' > ; f.f.f.",
"f.f.f.f ; s.a.% :.} , q.f.f.f.f.",
"f.f.f.f.f.d.Z 6 % t.f.f.f.f.f.f.",
"f.f.f.f.f.f.f.f.f.f.f.f.f.f.f.f."
};
