/* XPM */
static char *hi22g_b0axz[] = {
/* columns rows colors chars-per-pixel */
"64 64 108 2 ",
"   c #360000",
".  c #3A0000",
"X  c #430100",
"o  c #4A0200",
"O  c #4C0900",
"+  c #540200",
"@  c #5D0100",
"#  c #540800",
"$  c #5C0900",
"%  c #640000",
"&  c #6C0000",
"*  c #630A00",
"=  c #6E0C00",
"-  c #730100",
";  c #7B0000",
":  c #740B00",
">  c #7C0A00",
",  c #751000",
"<  c #7B1000",
"1  c #830000",
"2  c #8B0100",
"3  c #840C00",
"4  c #8B0C00",
"5  c #930100",
"6  c #9B0000",
"7  c #940C00",
"8  c #9B0D00",
"9  c #831100",
"0  c #8C1200",
"q  c #941200",
"w  c #9C1300",
"e  c #A10400",
"r  c #AF0400",
"t  c #A30D00",
"y  c #AB0C00",
"u  c #B20600",
"i  c #BE0200",
"p  c #B60B00",
"a  c #BA0C00",
"s  c #A31400",
"d  c #AB1400",
"f  c #AB1900",
"g  c #B41500",
"h  c #BD1500",
"j  c #B31A00",
"k  c #BC1C00",
"l  c #C40400",
"z  c #CC0300",
"x  c #C10C00",
"c  c #CA0C00",
"v  c #DD0900",
"b  c #C51200",
"n  c #CB1400",
"m  c #C31C00",
"M  c #CB1B00",
"N  c #D41400",
"B  c #D91500",
"V  c #D51C00",
"C  c #DC1B00",
"Z  c #E40400",
"A  c #ED0500",
"S  c #F10600",
"D  c #F80600",
"F  c #E11900",
"G  c #C52000",
"H  c #CC2100",
"J  c #D42300",
"K  c #DC2500",
"L  c #DF2800",
"P  c #E12600",
"I  c #EC2400",
"U  c #E42900",
"Y  c #EB2D00",
"T  c #F22600",
"R  c #F32D00",
"E  c #FA2D00",
"W  c #EF3000",
"Q  c #F33300",
"!  c #FA3400",
"~  c #FB3B00",
"^  c #EA2D11",
"/  c #E23729",
"(  c #EB3B29",
")  c #FE4300",
"_  c #FF4900",
"`  c #FF5400",
"'  c #FF5C00",
"]  c #FF6300",
"[  c #FF6F00",
"{  c #FF7400",
"}  c #FF7C00",
"|  c #F14334",
" . c #E84A40",
".. c #EF554C",
"X. c #F66257",
"o. c #D86A67",
"O. c #DB6E6A",
"+. c #C47D7C",
"@. c #FF8500",
"#. c #FF8900",
"$. c #CF817F",
"%. c #D7807D",
"&. c #C39D9D",
"*. c #D89493",
"=. c #D39F9E",
"-. c #E09896",
";. c #C5A4A4",
":. c None",
/* pixels */
":.:.:.:.:.:.:.:.:.:.:.:.:.:.:.:.:.:.:.:.:.:.:.:.:.:.:.:.:.:.:.:.:.:.:.:.:.:.:.:.:.:.:.:.:.:.:.:.:.:.:.:.:.:.:.:.:.:.:.:.:.:.:.:.",
":.:.:.:.:.:.:.:.:.:.:.:.:.:.:.:.:.:.:.:.:.:.:.:.:.:.:.:.:.:.:.:.:.:.:.:.:.:.:.:.:.:.:.:.:.:.:.:.:.:.:.:.:.:.:.:.:.:.:.:.:.:.:.:.",
":.:.:.:.:.:.:.:.:.:.:.:.:.:.:.:.:.:.:.:.:.:.:.:.o.! ! Q ! Y Y Y I Y Q Y R Y :.:.:.:.:.:.:.:.:.:.:.:.:.:.:.:.:.:.:.:.:.:.:.:.:.:.",
":.:.:.:.:.:.:.:.:.:.:.:.:.:.:.:.:.:.:.:.:.~ ! Q J 3 1 ; 1 - > ; & > ; ; - q m Q W ..:.:.:.:.:.:.:.:.:.:.:.:.:.:.:.:.:.:.:.:.:.:.",
":.:.:.:.:.:.:.:.:.:.:.:.:.:.:.:.:.:.:.! ~ H 1 2 K q ! ! > Q Q ; Q H Q Q 0 Q 3 - & f Y R :.:.:.:.:.:.:.:.:.:.:.:.:.:.:.:.:.:.:.:.",
":.:.:.:.:.:.:.:.:.:.:.:.:.:.:.:.:.~ P 1 2 ! ~ 1 O 1 1 1 k Y U P U J 7 ; ; - P m Q s - w Y Y :.:.:.:.:.:.:.:.:.:.:.:.:.:.:.:.:.:.",
":.:.:.:.:.:.:.:.:.:.:.:.:.:.:.~ ~ > 2 ~ J f 2 ; J 1 1 1 0 K I & U m ; ; ; 1 U - - ; W J ; G Y | :.:.:.:.:.:.:.:.:.:.:.:.:.:.:.:.",
":.:.:.:.:.:.:.:.:.:.:.:.:.:.) M 5 ~ g 2 2 M 1 1 H 2 2 1 j Y W P U P 4 ; ; ; Y ; ; K - J J j & m Y :.:.:.:.:.:.:.:.:.:.:.:.:.:.:.",
":.:.:.:.:.:.:.:.:.:.:.:.) ~ 5 5 ) - 5 2 5 K 5 ~ ! 2 1 8 Y K g g k P K 1 1 ; ! ; + n - P - Y % - 0 Y :.:.:.:.:.:.:.:.:.:.:.:.:.:.",
":.:.:.:.:.:.:.:.:.:.:.) j t ) ) 5 P 5 P 5 U 2 2 J o 2 2 W P j 3 H U J 1 ; % K ; q - - s - : - R * & W *.:.:.:.:.:.:.:.:.:.:.:.:.",
":.:.:.:.:.:.:.:.:.:.) 0 6 w * 5 5 Y 5 I 5 I 2 2 k 2 1 P J > 2 1 1 w I n 1 ; Y ; 3 1 - ; > - J - 4 K - Y ^ :.:.:.:.:.:.:.:.:.:.:.",
":.:.:.:.:.:.:.:.:.) < 6 ) , s 6 m 5 5 h 5 g 2 2 k 2 2 P k 1 1 2 1 4 L n 1 ; Y 1 H ; j ; K ; 8 - - R Y > I &.:.:.:.:.:.:.:.:.:.:.",
":.:.:.:.:.:.:.:.) f 6 ! 6 Y 6 6 Y 6 7 5 5 5 4 6 7 5 n J 2 2 2 1 w 8 1 U e 1 P ; f ; J ; K ; - K - - - U > Y :.:.:.:.:.:.:.:.:.:.",
":.:.:.:.:.:.:.:.~ 6 ) : Y 6 6 U 5 6 5 5 5 5 2 Q 2 2 5 2 2 4 2 1 2 1 1 1 3 1 P ; K ; U ; P - - & ! 3 - W H > Y :.:.:.:.:.:.:.:.:.",
":.:.:.:.:.:.:.) t ) 6 k 6 6 q s 6 5 H 5 2 5 5 ! 2 5 2 Q 2 2 2 w 2 2 ; 1 7 4 4 ; k ; ; ; ; ; % ! 4 > f - $ - * Y :.:.:.:.:.:.:.:.",
":.:.:.:.:.:._ 0 Y ) e e 6 Y y 6 8 q q d f 7 w q 8 s d 3 a a h 8 h a a a x a a c n ; ; > * J ! - 7 - K * - Y - M ;.:.:.:.:.:.:.:.",
":.:.:.:.:.=.! 6 K e 6 w R 6 6 $ 2 S S A Z S Z D z A l A z A z S l Z x A z Z x D 5 w M K K I ; ; - - - - U - - & Y :.:.:.:.:.:.:.",
":.:.:.:.:.) t ) 5 j ! 6 6 6 6 * Z ) ) ) ) ~ ) ) ~ ) ~ ) ~ ~ ~ ~ ~ ~ ! ! ~ ! ~ Q : q U R Q ; - ; K f - - - & W % f Y :.:.:.:.:.:.",
":.:.:.:.O.f 6 f 2 6 6 5 5 5 5 $ Z ) ) ) ) ) ~ ) ~ ~ ) ~ ~ ~ ~ ~ ~ ~ ! ~ ~ ! ! ! 4 0 c 8 ; ; ; q ; - d W s & & $ > Y :.:.:.:.:.:.",
":.:.:.:.~ 5 ~ 5 5 q 5 5 5 6 t * ; Q Q Y Q ! ~ ! ~ ~ ~ ~ ~ ~ ) ~ ~ ~ ~ ~ ~ ~ ~ ! 1 q c ; Y ; - : ; - - - - & M Y & < Y :.:.:.:.:.",
":.:.:.:.J 2 ~ 2 2 5 G H ! 5 5 $ R ! Q ! ! Q ! Y ! Y E Y R ! ! ! ! Q ! Y R Y R Y ! q ; Y n ; > b b M L P s > - - W & Y :.:.:.:.:.",
":.:.:.~ > Q 2 > q I 2 5 2 U 5 2 & & & & & % & & & & & % & & @ & @ % % % & & % @ % 1 5 5 5 - ; ; ; - - ; - : ; @ 3 - f %.:.:.:.:.",
":.:.:.! s ! ; 1 1 1 1 1 2 1 2 5 2 2 5 1 1 8 2 1 2 2 2 2 2 2 2 2 1 2 2 1 1 1 1 1 ; 1 ! G f G f Q K P P P K Y U = G U * I :.:.:.:.",
":.:.:.q 8 @ J P U n U 1 1 2 1 2 1 2 2 1 2 2 1 1 2 * 1 2 2 2 1 2 2 2 1 1 2 1 1 1 ; ; Q % Q Q ; Q ; - - ; - - - - : J & Y :.:.:.:.",
":.:.! : ! ; > ; ; 3 1 1 1 1 1 1 1 ; 1 ; 1 1 1 2 1 3 1 1 1 1 2 1 1 1 1 1 1 1 1 ; ; 1 Q I Q ! - Q ; V V h b 5 a u u I & G :.:.:.:.",
":.:.! 8 ! 1 1 ; 1 ; ; ; ; 1 1 ; ; ; ; ; 2 1 ; ; ; G ; ; ; 1 1 ; 2 1 1 ; ; ; ; ; ; 1 ! + Q Q ; Q 3 : - : q P H U W W 0 9 U :.:.:.",
":.:.! 7 J 1 1 1 8 1 I Y ; ; ; ; ; ; ; ; ; ; ; ; ; ; ; ; ; - 1 ; ; ; 1 ; ; 1 1 ; 1 - Q T Q Q ; Q 3 1 - - - - - & & & ; & Y :.:.:.",
":.:.! 1 ~ Y J Y Y Q f d 3 ; ; ; ; ; ; ; - ; - ; ; ; ; 1 ; ; ; ; ; ; ; 1 ; W 1 - ; - Q $ Q Q - Q > q c - - - - - & & Y : U :.:.:.",
":.:.k ; ! J Y J 4 q 2 ; 1 ; ; ; Q Q Q Y Q Q Q R Q Y R W Q Q Q Y Y Q W R W Y - 1 - - W E Q W - Q - - Q B N - ; & & & m : Y :.:.:.",
":.| k ! d q j w 2 2 2 1 - 2 1 # . ; ; 1 2 - 1 - - - - - & - - - & ; - : ; Y ) - & - U $ Y Q - Q + Y - ~ Q c c - - s 2 > U :.:.:.",
":.) m ) < U K d 5 2 2 2 2 1 1 # Z Q W W Q Y Q Q Y Y W Q Y Y Y Y Y Y I U % U ` ] & & P E Y Y & W - & Q - 1 n V r & ] U * U :.:.:.",
":._ k 6 6 6 5 6 6 5 6 5 7 2 1 # Z ! Q Q Q Q Q R R W Y Y Y W Y Y W I Y Y % Y ) ) & - U : W U & P & - & - ~ & & c % m W & L :.:.:.",
":.) j ) * & t 6 6 6 6 6 5 g - O @ 1 p 1 n - h - K - J - J - K & K & K % & U : % & % P ! P U % U % ] ; W & & ! l % & U & P :.:.:.",
":.X.k ) j 7 d 8 5 6 6 5 8 5 1 $ ~ ~ ~ ! ! Q ! Q W Q R Y Y W R Y W U Y Y I U & & & & P # U U % L % % W & % P B 1 & % % % U :.:.:.",
":.:.j 6 6 m P k 5 s 6 H 6 8 5 2 5 2 2 1 2 1 1 1 1 ; ; - - - & - & - & & & & & % & % P ) P U % L % % % @ V 6 i % % % U % L :.:.:.",
":.:.W 5 ) ! R ! J Y M 5 m 6 d 5 9 7 7 2 g 1 2 1 q 1 ; > 1 2 : 2 ; - - - - - * & & % L X P U % L & * V 1 & % % @ @ @ K @ L :.:.:.",
":.:.~ 2 ~ 3 2 5 C b 6 M 5 k 5 w 5 5 5 2 C ! P Y W 1 Y Y ! Q Y R Q Q Y Q W R Y I & % P _ P P % P % * @ % @ @ @ % @ % K @ K :.:.:.",
":.:.! 8 ! 2 5 5 2 7 k 5 m 5 m 5 V 2 4 5 n 2 1 2 ; 1 1 1 1 ; ; > > - ; - - & - < > % P X U L % L = % % & % d t g m q q 4 J :.:.:.",
":.:.! 3 ~ 2 2 4 2 7 g k 2 m 2 ! Q ~ ! ) ~ 2 1 ~ 2 1 1 1 - ; ; ; - - ; - & Y & & > & P ) U P % P % ! K V V K V N v J @ C :.:.:.:.",
":.:.$.9 1 ; Y Y U Y 3 1 B 1 ! ~ ) ) ` ' ] ] 2 w m 1 > P ) ~ ~ ~ ~ ~ ~ ~ ~ ~ & # % - U X L U % P % % # % % @ @ @ @ W * J :.:.:.:.",
":.:.:.Q 4 Q ; ; 1 ; 4 ! 1 m 7 s 8 8 d m h h 2 s 7 v ` ) ' ` ' ` ` ` ` ` ` ' ` & - & Y e o $ 2 P a ! R ! M K % @ % K : J :.:.:.:.",
":.:.:.Y q W ; ; ; > : 1 1 1 1 ; 2 1 2 1 1 2 1 1 3 1 1 1 1 1 1 ; 1 ; - ; ; - - - - & 0 : = > : X % @ % % e + K m J # ~ J :.:.:.:.",
":.:.:.O.j ; W k 8 & - ; ; ; ; $ ! ! ! ! ! ! ~ ~ ! Q ! ! ! ! Q ! Q ! ! Q R W Q W W f & U P U Y % & ! I V % K J @ s @ K :.:.:.:.:.",
":.:.:.:.Y > Y - & - : - ; 1 ; * z - s - H ; m ; Y ; Q : T ; ! - W - R - I - Y ; Z f J & P x u & % % % % e n ~ U w 3 J :.:.:.:.:.",
":.:.:.:.L q * & J & & 2 5 5 2 * z Q Q Q ! Q Q ! ! Q Q ! Q ! Q Q Q Q Q Q Q Q W Q > g m V & : & % 7 P ~ ! % % % P % P :.:.:.:.:.:.",
":.:.:.:.:.P & U & & C F F W F 4 z W W ! W Q W Q Q Q Q Q Q Q Q Q Q ! Q ! Q Q Q ! * s - 4 P & & & w K & % - n ! k V K :.:.:.:.:.:.",
":.:.:.:.:.K k * $ % M U U K C q   - - - - - ; - - ; - ; > ; ; ; - ; - - : - ; - o s : - - K & & & U & Q s % Y % P :.:.:.:.:.:.:.",
":.:.:.:.:.:.P 3 Q k & & : : : % Y Y Y Y Y W W W W Q Q Q Q W Q Q Q Q Q W Q Y Q Y R + M - - & K & - : g % & U % ! P :.:.:.:.:.:.:.",
":.:.:.:.:.:.:.L : K % & % % & & & & & & - - - - - & - - - - ; - - ; - - - - - - - b q & V : & P : & M % G k : U :.:.:.:.:.:.:.:.",
":.:.:.:.:.:.:.J J * P % q % % & - % & & & & - - & - & - - - - - - - 0 - - & - V - b - - ~ & - ~ & & & ~ s : U :.:.:.:.:.:.:.:.:.",
":.:.:.:.:.:.:.:.K M + K % q h % & & & & & % & & & & - & & & & & & s 3 - - - - K - U - u s & n & & t & U & ! P :.:.:.:.:.:.:.:.:.",
":.:.:.:.:.:.:.:.:.K m @ P % J % % K & & & & & & & & & - & - - - Z d 6 - & - - b - P - m & - ~ & 2 U L & ! U :.:.:.:.:.:.:.:.:.:.",
":.:.:.:.:.:.:.:.:.:.K G * P % K % > & & ; * & & & & & & & & & & q q 3 - P - & M & _ - ~ & U & & & Y & ! U :.:.:.:.:.:.:.:.:.:.:.",
":.:.:.:.:.:.:.:.:.:.:.L J % U H % % 2 * - g & ] & & % & : & & & $ : > ~ u & - : & ) & ~ & ) & Y W & R Y :.:.:.:.:.:.:.:.:.:.:.:.",
":.:.:.:.:.:.:.:.:.:.:.:.K K % K k & U & n & & { & & I ] & : & % & - & _ a & & P & V & & ; & ) m & U U :.:.:.:.:.:.:.:.:.:.:.:.:.",
":.:.:.:.:.:.:.:.:.:.:.:.:.J U : $ U & & Y & & { & & b ] ! & & % & & ~ Y ; - & H & : 1 & H U & ~ U :.:.:.:.:.:.:.:.:.:.:.:.:.:.:.",
":.:.:.:.:.:.:.:.:.:.:.:.:.:.:.U K 0 9 U K & - [ & : y ) ] - - 9 & Y ) J & & & I & & Y U & : Y U :.:.:.:.:.:.:.:.:.:.:.:.:.:.:.:.",
":.:.:.:.:.:.:.:.:.:.:.:.:.:.:.:.P Y } : & Y Y - - & n [ R - & & - - ! ~ : & & $ Y J & & ~ I :.:.:.:.:.:.:.:.:.:.:.:.:.:.:.:.:.:.",
":.:.:.:.:.:.:.:.:.:.:.:.:.:.:.:.:.:.U W ' 7 : $ Y P Q Q - - & - & & J Y ~ Y Y - & ~ J W :.:.:.:.:.:.:.:.:.:.:.:.:.:.:.:.:.:.:.:.",
":.:.:.:.:.:.:.:.:.:.:.:.:.:.:.:.:.:.:.:.$.Q Y @.3 3 & 3 - Q W - W K f % 3 q ! ~ Y W :.:.:.:.:.:.:.:.:.:.:.:.:.:.:.:.:.:.:.:.:.:.",
":.:.:.:.:.:.:.:.:.:.:.:.:.:.:.:.:.:.:.:.:.:.:.;.! ! Q E _ } #.#.@.` I Q W Q Y :.:.:.:.:.:.:.:.:.:.:.:.:.:.:.:.:.:.:.:.:.:.:.:.:.",
":.:.:.:.:.:.:.:.:.:.:.:.:.:.:.:.:.:.:.:.:.:.:.:.:.:.:.:.:.-. .( / +.:.:.:.:.:.:.:.:.:.:.:.:.:.:.:.:.:.:.:.:.:.:.:.:.:.:.:.:.:.:.",
":.:.:.:.:.:.:.:.:.:.:.:.:.:.:.:.:.:.:.:.:.:.:.:.:.:.:.:.:.:.:.:.:.:.:.:.:.:.:.:.:.:.:.:.:.:.:.:.:.:.:.:.:.:.:.:.:.:.:.:.:.:.:.:.",
":.:.:.:.:.:.:.:.:.:.:.:.:.:.:.:.:.:.:.:.:.:.:.:.:.:.:.:.:.:.:.:.:.:.:.:.:.:.:.:.:.:.:.:.:.:.:.:.:.:.:.:.:.:.:.:.:.:.:.:.:.:.:.:."
};
